<svg width="23" height="23" viewBox="0 0 23 23" fill="none" xmlns="http://www.w3.org/2000/svg">
<g clip-path="url(#clip0_2453_60261)">
<path d="M11.3562 22.367C5.36444 22.367 0.489258 17.4918 0.489258 11.5C0.489258 5.50824 5.36444 0.633057 11.3562 0.633057C17.348 0.633057 22.2232 5.50824 22.2232 11.5C22.2232 17.4918 17.348 22.367 11.3562 22.367ZM11.3562 1.99143C6.11291 1.99143 1.84763 6.2567 1.84763 11.5C1.84763 16.7433 6.11291 21.0086 11.3562 21.0086C16.5995 21.0086 20.8648 16.7433 20.8648 11.5C20.8648 6.2567 16.5995 1.99143 11.3562 1.99143Z" fill="white"/>
<path d="M9.9977 15.177L6.80078 11.9801L7.76115 11.0197L9.9977 13.2563L14.951 8.30298L15.9114 9.26335L9.9977 15.177Z" fill="white"/>
</g>
<defs>
<clipPath id="clip0_2453_60261">
<rect width="21.7339" height="21.7339" fill="white" transform="translate(0.489258 0.633057)"/>
</clipPath>
</defs>
</svg>
