<svg width="163" height="42" viewBox="0 0 163 42" fill="none" xmlns="http://www.w3.org/2000/svg">
<g clip-path="url(#clip0_2038_3901)">
<path fill-rule="evenodd" clip-rule="evenodd" d="M65.54 14.4456H68.7786L72.7905 22.4988L76.7654 14.4456H79.9859V27.5538H77.3727V18.6962L73.7109 26.2242H71.834L68.1533 18.6962V27.5538H65.54V14.4456Z" fill="#09132D"/>
<path fill-rule="evenodd" clip-rule="evenodd" d="M84.2666 14.4456H94.227V16.8983H87.2199V19.7449H93.5168V22.1976H87.2199V25.1011H94.4322V27.5538H84.2666V14.4456Z" fill="#09132D"/>
<path fill-rule="evenodd" clip-rule="evenodd" d="M97.159 14.4456H100.6L103.33 18.4529L106.079 14.4456H109.576L105.219 20.7192L109.949 27.5538H106.415L103.33 23.1902L100.3 27.5538H96.8408L101.535 20.8505L97.159 14.4456Z" fill="#09132D"/>
<path fill-rule="evenodd" clip-rule="evenodd" d="M112.893 14.4456H122.853V16.8983H115.846V19.7449H122.143V22.1976H115.846V25.1011H123.058V27.5538H112.893V14.4456Z" fill="#09132D"/>
<path fill-rule="evenodd" clip-rule="evenodd" d="M134.077 24.5141C134.652 24.174 135.099 23.7012 135.421 23.0955C135.742 22.4899 135.903 21.7979 135.903 21.0185C135.903 20.2401 135.733 19.5408 135.393 18.9233C135.053 18.305 134.589 17.8266 134.003 17.4856C133.415 17.1455 132.751 16.9755 132.011 16.9755H129.489V25.0252H132.14C132.856 25.0252 133.502 24.8542 134.077 24.5141ZM135.606 15.3341C136.644 15.8851 137.451 16.6517 138.025 17.6348C138.6 18.6169 138.887 19.739 138.887 21.0003C138.887 22.2607 138.593 23.3829 138.006 24.3659C137.42 25.3489 136.601 26.1155 135.55 26.6657C134.5 27.2159 133.3 27.4905 131.954 27.4905H126.56V14.5093H132.065C133.388 14.5093 134.568 14.7848 135.606 15.3341Z" fill="#09132D"/>
<mask id="mask0_2038_3901" style="mask-type:alpha" maskUnits="userSpaceOnUse" x="0" y="0" width="163" height="42">
<path d="M0 42H162.115V0H0V42Z" fill="white"/>
</mask>
<g mask="url(#mask0_2038_3901)">
<path fill-rule="evenodd" clip-rule="evenodd" d="M142.207 27.4905H145.137V14.5093H142.207V27.4905Z" fill="#09132D"/>
<path fill-rule="evenodd" clip-rule="evenodd" d="M152.92 22.6136H157.016L154.978 17.5684L152.92 22.6136ZM158.981 27.4905L157.962 24.9688H151.955L150.935 27.4905H147.914L153.55 14.5093H156.572L162.114 27.4905H158.981Z" fill="#09132D"/>
<path fill-rule="evenodd" clip-rule="evenodd" d="M36.126 28.3886L44.8674 34.5114C46.6426 35.7545 49.0831 34.4841 49.0831 32.3153V31.1031C49.0831 30.2283 48.6568 29.4089 47.9405 28.9069L40.0645 23.3907C39.1419 22.7451 37.9139 22.7451 36.9913 23.3907L36.126 23.9964C34.6025 25.064 34.6025 27.3219 36.126 28.3886Z" fill="#00DEA8"/>
<path fill-rule="evenodd" clip-rule="evenodd" d="M26.7101 15.4909L42.0287 4.88494C44.1884 3.38903 43.1304 0.000732422 40.5044 0.000732422H38.7174C38.1729 0.000732422 37.6412 0.166237 37.1931 0.47724L26.7101 7.73489C25.8121 8.3569 24.6268 8.37054 23.7142 7.77036L12.5686 0.440866C12.1323 0.153506 11.6206 0.000732422 11.097 0.000732422H9.05914C6.39863 0.000732422 5.36515 3.45905 7.58754 4.9204L23.7142 15.5263C24.6268 16.1265 25.8121 16.1129 26.7101 15.4909Z" fill="#1079FF"/>
<path fill-rule="evenodd" clip-rule="evenodd" d="M40.0645 18.6083L47.9405 13.093C48.6559 12.592 49.0831 11.7717 49.0831 10.8969V9.68474C49.0831 7.51681 46.6426 6.24551 44.8674 7.48862L36.126 13.6105C34.6025 14.6772 34.6025 16.9351 36.126 18.0018L36.9913 18.6083C37.9139 19.254 39.1419 19.254 40.0645 18.6083Z" fill="#00DEA8"/>
<path fill-rule="evenodd" clip-rule="evenodd" d="M12.9571 28.3886L4.21573 34.5114C2.44054 35.7545 0 34.4841 0 32.3153V31.1031C0 30.2283 0.426299 29.4089 1.14255 28.9069L9.01864 23.3907C9.94123 22.7451 11.1692 22.7451 12.0918 23.3907L12.9571 23.9964C14.4805 25.064 14.4805 27.3219 12.9571 28.3886Z" fill="#00DEA8"/>
<path fill-rule="evenodd" clip-rule="evenodd" d="M9.01864 18.6083L1.14255 13.093C0.427208 12.592 0 11.7717 0 10.8969V9.68474C0 7.51681 2.44054 6.24551 4.21573 7.48862L12.9571 13.6105C14.4805 14.6772 14.4805 16.9351 12.9571 18.0018L12.0918 18.6083C11.1692 19.254 9.94123 19.254 9.01864 18.6083Z" fill="#00DEA8"/>
<path fill-rule="evenodd" clip-rule="evenodd" d="M38.8771 42.0002H40.5996C43.2165 42.0002 44.2799 38.6292 42.1375 37.126L27.1171 26.5855C26.2254 25.9599 25.0438 25.9371 24.1284 26.5264L7.76636 37.066C5.51943 38.5137 6.54473 42.0002 9.21705 42.0002H11.3604C11.8739 42.0002 12.3775 41.852 12.8101 41.5737L24.1284 34.2824C25.0438 33.6931 26.2254 33.7159 27.1171 34.3415L37.3392 41.5146C37.79 41.8301 38.3272 42.0002 38.8771 42.0002Z" fill="#1079FF"/>
</g>
</g>
<defs>
<clipPath id="clip0_2038_3901">
<rect width="162.115" height="42" fill="white"/>
</clipPath>
</defs>
</svg>
