<svg width="16" height="16" viewBox="0 0 16 16" fill="none" xmlns="http://www.w3.org/2000/svg">
<path fill-rule="evenodd" clip-rule="evenodd" d="M14.6668 7.80005C13.5798 5.07769 10.9314 3.30328 8.00017 3.33339C5.08845 3.31655 2.46161 5.07923 1.3735 7.78005C1.34788 7.85061 1.33435 7.92499 1.3335 8.00005C1.33315 8.0709 1.34674 8.14112 1.3735 8.20672C2.45737 10.9128 5.08515 12.6814 8.00017 12.6667C10.9119 12.6835 13.5387 10.9209 14.6268 8.22005C14.6554 8.15031 14.669 8.07537 14.6668 8.00005C14.6777 7.93382 14.6777 7.86628 14.6668 7.80005ZM8.00017 11.3334C5.74445 11.3283 3.69046 10.0332 2.7135 8.00005C3.68709 5.96404 5.74335 4.66805 8.00017 4.66805C10.257 4.66805 12.3132 5.96404 13.2868 8.00005C12.3099 10.0332 10.2559 11.3283 8.00017 11.3334ZM8.00017 6.00005C6.8956 6.00005 6.00017 6.89548 6.00017 8.00005C6.00017 9.10462 6.8956 10.0001 8.00017 10.0001C9.10474 10.0001 10.0002 9.10462 10.0002 8.00005C10.0002 6.89548 9.10474 6.00005 8.00017 6.00005Z" fill="#6B6C73"/>
</svg>
